{
	"asset":{
		"generator":"Khronos glTF Blender I/O v5.2.39",
		"version":"2.0"
	},
	"scene":0,
	"scenes":[
		{
			"name":"Scene",
			"nodes":[
				0,
				4,
				8
			]
		}
	],
	"nodes":[
		{
			"mesh":0,
			"name":"Chassis"
		},
		{
			"mesh":1,
			"name":"FootLeft2",
			"translation":[
				13.19583511352539,
				-4.283164024353027,
				0
			]
		},
		{
			"children":[
				1
			],
			"mesh":2,
			"name":"LowerLegLeft2",
			"translation":[
				13.196229934692383,
				2.154726982116699,
				0.00017827744886744767
			]
		},
		{
			"children":[
				2
			],
			"mesh":3,
			"name":"UpperLegLeft2",
			"rotation":[
				-1,
				0,
				0,
				1.2076387179149606e-07
			],
			"translation":[
				2.9164981842041016,
				-0.04461950436234474,
				1.140498399734497
			]
		},
		{
			"children":[
				3
			],
			"mesh":4,
			"name":"ShoulderLeft2",
			"rotation":[
				0.7071068286895752,
				0,
				0,
				0.7071068286895752
			],
			"scale":[
				0.3470325171947479,
				0.12185090035200119,
				0.3470325171947479
			],
			"translation":[
				0.9876548051834106,
				1.7435426712036133,
				-0.006186008453369141
			]
		},
		{
			"mesh":5,
			"name":"FootRight2",
			"translation":[
				13.19583511352539,
				-4.283164024353027,
				0
			]
		},
		{
			"children":[
				5
			],
			"mesh":6,
			"name":"LowerLegRight2",
			"translation":[
				13.19622802734375,
				2.154726982116699,
				0.00017827878764364868
			]
		},
		{
			"children":[
				6
			],
			"mesh":7,
			"name":"UpperLegRight2",
			"rotation":[
				-1,
				0,
				0,
				1.2076387179149606e-07
			],
			"translation":[
				2.9164979457855225,
				-0.04461950808763504,
				1.140498399734497
			]
		},
		{
			"children":[
				7
			],
			"mesh":8,
			"name":"ShoulderRight2",
			"rotation":[
				0,
				0.7071068286895752,
				-0.7071068286895752,
				3.090862676913275e-08
			],
			"scale":[
				0.3470325171947479,
				0.12185090035200119,
				0.3470325171947479
			],
			"translation":[
				-0.9569108486175537,
				1.7435426712036133,
				0
			]
		}
	],
	"materials":[
		{
			"doubleSided":true,
			"name":"Orange",
			"pbrMetallicRoughness":{
				"baseColorFactor":[
					0.8000156879425049,
					0.2017655074596405,
					0.046033162623643875,
					1
				],
				"metallicFactor":0,
				"roughnessFactor":0.5
			}
		},
		{
			"doubleSided":true,
			"name":"Blue",
			"pbrMetallicRoughness":{
				"baseColorFactor":[
					0.14964905381202698,
					0.2988695502281189,
					0.8000074625015259,
					1
				],
				"metallicFactor":0,
				"roughnessFactor":0.5
			}
		},
		{
			"doubleSided":true,
			"name":"Brown",
			"pbrMetallicRoughness":{
				"baseColorFactor":[
					0.1306528002023697,
					0.05713465437293053,
					0.03233765810728073,
					1
				],
				"metallicFactor":0,
				"roughnessFactor":0.5
			}
		},
		{
			"doubleSided":true,
			"name":"Grey",
			"pbrMetallicRoughness":{
				"baseColorFactor":[
					0.3348400294780731,
					0.3348400294780731,
					0.3348400294780731,
					1
				],
				"metallicFactor":0,
				"roughnessFactor":0.5
			}
		},
		{
			"doubleSided":true,
			"name":"Tan",
			"pbrMetallicRoughness":{
				"baseColorFactor":[
					0.26910942792892456,
					0.1874741017818451,
					0.12671802937984467,
					1
				],
				"metallicFactor":0,
				"roughnessFactor":0.5
			}
		}
	],
	"meshes":[
		{
			"name":"Cylinder.001",
			"primitives":[
				{
					"attributes":{
						"POSITION":0,
						"NORMAL":1,
						"TEXCOORD_0":2
					},
					"indices":3,
					"material":0
				},
				{
					"attributes":{
						"POSITION":4,
						"NORMAL":5,
						"TEXCOORD_0":6
					},
					"indices":7,
					"material":1
				}
			]
		},
		{
			"name":"Cylinder.024",
			"primitives":[
				{
					"attributes":{
						"POSITION":8,
						"NORMAL":9,
						"TEXCOORD_0":10
					},
					"indices":11,
					"material":2
				},
				{
					"attributes":{
						"POSITION":12,
						"NORMAL":13,
						"TEXCOORD_0":14
					},
					"indices":15,
					"material":3
				}
			]
		},
		{
			"name":"Cylinder.022",
			"primitives":[
				{
					"attributes":{
						"POSITION":16,
						"NORMAL":17,
						"TEXCOORD_0":18
					},
					"indices":19,
					"material":4
				}
			]
		},
		{
			"name":"Cylinder.023",
			"primitives":[
				{
					"attributes":{
						"POSITION":20,
						"NORMAL":21,
						"TEXCOORD_0":22
					},
					"indices":23,
					"material":1
				}
			]
		},
		{
			"name":"Cylinder.025",
			"primitives":[
				{
					"attributes":{
						"POSITION":24,
						"NORMAL":25,
						"TEXCOORD_0":26
					},
					"indices":27,
					"material":3
				}
			]
		},
		{
			"name":"Cylinder.011",
			"primitives":[
				{
					"attributes":{
						"POSITION":28,
						"NORMAL":29,
						"TEXCOORD_0":30
					},
					"indices":11,
					"material":2
				},
				{
					"attributes":{
						"POSITION":31,
						"NORMAL":32,
						"TEXCOORD_0":33
					},
					"indices":15,
					"material":3
				}
			]
		},
		{
			"name":"Cylinder.009",
			"primitives":[
				{
					"attributes":{
						"POSITION":34,
						"NORMAL":35,
						"TEXCOORD_0":36
					},
					"indices":19,
					"material":4
				}
			]
		},
		{
			"name":"Cylinder.010",
			"primitives":[
				{
					"attributes":{
						"POSITION":37,
						"NORMAL":38,
						"TEXCOORD_0":39
					},
					"indices":23,
					"material":1
				}
			]
		},
		{
			"name":"Cylinder.013",
			"primitives":[
				{
					"attributes":{
						"POSITION":40,
						"NORMAL":41,
						"TEXCOORD_0":42
					},
					"indices":27,
					"material":3
				}
			]
		}
	],
	"accessors":[
		{
			"bufferView":0,
			"componentType":5126,
			"count":384,
			"max":[
				0.9999990463256836,
				2.984027862548828,
				3.693333148956299
			],
			"min":[
				-1.0000011920928955,
				0.6986229419708252,
				-2.4752919673919678
			],
			"type":"VEC3"
		},
		{
			"bufferView":1,
			"componentType":5126,
			"count":384,
			"type":"VEC3"
		},
		{
			"bufferView":2,
			"componentType":5126,
			"count":384,
			"type":"VEC2"
		},
		{
			"bufferView":3,
			"componentType":5123,
			"count":744,
			"type":"SCALAR"
		},
		{
			"bufferView":4,
			"componentType":5126,
			"count":144,
			"max":[
				1.1633188724517822,
				1.6945397853851318,
				3.2701456546783447
			],
			"min":[
				-1.1820077896118164,
				0.5029979944229126,
				-2.906691789627075
			],
			"type":"VEC3"
		},
		{
			"bufferView":5,
			"componentType":5126,
			"count":144,
			"type":"VEC3"
		},
		{
			"bufferView":6,
			"componentType":5126,
			"count":144,
			"type":"VEC2"
		},
		{
			"bufferView":7,
			"componentType":5123,
			"count":252,
			"type":"SCALAR"
		},
		{
			"bufferView":8,
			"componentType":5126,
			"count":228,
			"max":[
				1.2086693048477173,
				5.283166885375977,
				1.0000001192092896
			],
			"min":[
				-1,
				-1,
				-1.0000001192092896
			],
			"type":"VEC3"
		},
		{
			"bufferView":9,
			"componentType":5126,
			"count":228,
			"type":"VEC3"
		},
		{
			"bufferView":10,
			"componentType":5126,
			"count":228,
			"type":"VEC2"
		},
		{
			"bufferView":11,
			"componentType":5123,
			"count":456,
			"type":"SCALAR"
		},
		{
			"bufferView":12,
			"componentType":5126,
			"count":24,
			"max":[
				1.9342560768127441,
				6.766146659851074,
				1.0036760568618774
			],
			"min":[
				1.2125482559204102,
				-2.466499090194702,
				-0.9991122484207153
			],
			"type":"VEC3"
		},
		{
			"bufferView":13,
			"componentType":5126,
			"count":24,
			"type":"VEC3"
		},
		{
			"bufferView":14,
			"componentType":5126,
			"count":24,
			"type":"VEC2"
		},
		{
			"bufferView":15,
			"componentType":5123,
			"count":36,
			"type":"SCALAR"
		},
		{
			"bufferView":16,
			"componentType":5126,
			"count":396,
			"max":[
				14.344827651977539,
				1.0000001192092896,
				1.0030361413955688
			],
			"min":[
				-1.0000001192092896,
				-5.283166885375977,
				-1.0000001192092896
			],
			"type":"VEC3"
		},
		{
			"bufferView":17,
			"componentType":5126,
			"count":396,
			"type":"VEC3"
		},
		{
			"bufferView":18,
			"componentType":5126,
			"count":396,
			"type":"VEC2"
		},
		{
			"bufferView":19,
			"componentType":5123,
			"count":804,
			"type":"SCALAR"
		},
		{
			"bufferView":20,
			"componentType":5126,
			"count":236,
			"max":[
				14.337291717529297,
				1.000000238418579,
				1.003216028213501
			],
			"min":[
				-1,
				-1.000000238418579,
				-0.9998201131820679
			],
			"type":"VEC3"
		},
		{
			"bufferView":21,
			"componentType":5126,
			"count":236,
			"type":"VEC3"
		},
		{
			"bufferView":22,
			"componentType":5126,
			"count":236,
			"type":"VEC2"
		},
		{
			"bufferView":23,
			"componentType":5123,
			"count":492,
			"type":"SCALAR"
		},
		{
			"bufferView":24,
			"componentType":5126,
			"count":420,
			"max":[
				3.902005672454834,
				4.7613115310668945,
				2.2701520919799805
			],
			"min":[
				-1.6718039512634277,
				-4.7613115310668945,
				-9.5367431640625e-07
			],
			"type":"VEC3"
		},
		{
			"bufferView":25,
			"componentType":5126,
			"count":420,
			"type":"VEC3"
		},
		{
			"bufferView":26,
			"componentType":5126,
			"count":420,
			"type":"VEC2"
		},
		{
			"bufferView":27,
			"componentType":5123,
			"count":828,
			"type":"SCALAR"
		},
		{
			"bufferView":28,
			"componentType":5126,
			"count":228,
			"max":[
				1.2086693048477173,
				5.283166885375977,
				1.0000001192092896
			],
			"min":[
				-1,
				-1,
				-1.0000001192092896
			],
			"type":"VEC3"
		},
		{
			"bufferView":29,
			"componentType":5126,
			"count":228,
			"type":"VEC3"
		},
		{
			"bufferView":30,
			"componentType":5126,
			"count":228,
			"type":"VEC2"
		},
		{
			"bufferView":31,
			"componentType":5126,
			"count":24,
			"max":[
				1.9342560768127441,
				6.766146659851074,
				1.0036760568618774
			],
			"min":[
				1.2125482559204102,
				-2.466499090194702,
				-0.9991122484207153
			],
			"type":"VEC3"
		},
		{
			"bufferView":32,
			"componentType":5126,
			"count":24,
			"type":"VEC3"
		},
		{
			"bufferView":33,
			"componentType":5126,
			"count":24,
			"type":"VEC2"
		},
		{
			"bufferView":34,
			"componentType":5126,
			"count":396,
			"max":[
				14.344827651977539,
				1.0000001192092896,
				1.0030361413955688
			],
			"min":[
				-1.0000001192092896,
				-5.283166885375977,
				-1.0000001192092896
			],
			"type":"VEC3"
		},
		{
			"bufferView":35,
			"componentType":5126,
			"count":396,
			"type":"VEC3"
		},
		{
			"bufferView":36,
			"componentType":5126,
			"count":396,
			"type":"VEC2"
		},
		{
			"bufferView":37,
			"componentType":5126,
			"count":236,
			"max":[
				14.337291717529297,
				1.000000238418579,
				1.003216028213501
			],
			"min":[
				-1,
				-1.000000238418579,
				-0.9998201131820679
			],
			"type":"VEC3"
		},
		{
			"bufferView":38,
			"componentType":5126,
			"count":236,
			"type":"VEC3"
		},
		{
			"bufferView":39,
			"componentType":5126,
			"count":236,
			"type":"VEC2"
		},
		{
			"bufferView":40,
			"componentType":5126,
			"count":420,
			"max":[
				3.902005672454834,
				4.7613115310668945,
				2.2701520919799805
			],
			"min":[
				-1.6718039512634277,
				-4.7613115310668945,
				-9.5367431640625e-07
			],
			"type":"VEC3"
		},
		{
			"bufferView":41,
			"componentType":5126,
			"count":420,
			"type":"VEC3"
		},
		{
			"bufferView":42,
			"componentType":5126,
			"count":420,
			"type":"VEC2"
		}
	],
	"bufferViews":[
		{
			"buffer":0,
			"byteLength":4608,
			"byteOffset":0,
			"target":34962
		},
		{
			"buffer":0,
			"byteLength":4608,
			"byteOffset":4608,
			"target":34962
		},
		{
			"buffer":0,
			"byteLength":3072,
			"byteOffset":9216,
			"target":34962
		},
		{
			"buffer":0,
			"byteLength":1488,
			"byteOffset":12288,
			"target":34963
		},
		{
			"buffer":0,
			"byteLength":1728,
			"byteOffset":13776,
			"target":34962
		},
		{
			"buffer":0,
			"byteLength":1728,
			"byteOffset":15504,
			"target":34962
		},
		{
			"buffer":0,
			"byteLength":1152,
			"byteOffset":17232,
			"target":34962
		},
		{
			"buffer":0,
			"byteLength":504,
			"byteOffset":18384,
			"target":34963
		},
		{
			"buffer":0,
			"byteLength":2736,
			"byteOffset":18888,
			"target":34962
		},
		{
			"buffer":0,
			"byteLength":2736,
			"byteOffset":21624,
			"target":34962
		},
		{
			"buffer":0,
			"byteLength":1824,
			"byteOffset":24360,
			"target":34962
		},
		{
			"buffer":0,
			"byteLength":912,
			"byteOffset":26184,
			"target":34963
		},
		{
			"buffer":0,
			"byteLength":288,
			"byteOffset":27096,
			"target":34962
		},
		{
			"buffer":0,
			"byteLength":288,
			"byteOffset":27384,
			"target":34962
		},
		{
			"buffer":0,
			"byteLength":192,
			"byteOffset":27672,
			"target":34962
		},
		{
			"buffer":0,
			"byteLength":72,
			"byteOffset":27864,
			"target":34963
		},
		{
			"buffer":0,
			"byteLength":4752,
			"byteOffset":27936,
			"target":34962
		},
		{
			"buffer":0,
			"byteLength":4752,
			"byteOffset":32688,
			"target":34962
		},
		{
			"buffer":0,
			"byteLength":3168,
			"byteOffset":37440,
			"target":34962
		},
		{
			"buffer":0,
			"byteLength":1608,
			"byteOffset":40608,
			"target":34963
		},
		{
			"buffer":0,
			"byteLength":2832,
			"byteOffset":42216,
			"target":34962
		},
		{
			"buffer":0,
			"byteLength":2832,
			"byteOffset":45048,
			"target":34962
		},
		{
			"buffer":0,
			"byteLength":1888,
			"byteOffset":47880,
			"target":34962
		},
		{
			"buffer":0,
			"byteLength":984,
			"byteOffset":49768,
			"target":34963
		},
		{
			"buffer":0,
			"byteLength":5040,
			"byteOffset":50752,
			"target":34962
		},
		{
			"buffer":0,
			"byteLength":5040,
			"byteOffset":55792,
			"target":34962
		},
		{
			"buffer":0,
			"byteLength":3360,
			"byteOffset":60832,
			"target":34962
		},
		{
			"buffer":0,
			"byteLength":1656,
			"byteOffset":64192,
			"target":34963
		},
		{
			"buffer":0,
			"byteLength":2736,
			"byteOffset":65848,
			"target":34962
		},
		{
			"buffer":0,
			"byteLength":2736,
			"byteOffset":68584,
			"target":34962
		},
		{
			"buffer":0,
			"byteLength":1824,
			"byteOffset":71320,
			"target":34962
		},
		{
			"buffer":0,
			"byteLength":288,
			"byteOffset":73144,
			"target":34962
		},
		{
			"buffer":0,
			"byteLength":288,
			"byteOffset":73432,
			"target":34962
		},
		{
			"buffer":0,
			"byteLength":192,
			"byteOffset":73720,
			"target":34962
		},
		{
			"buffer":0,
			"byteLength":4752,
			"byteOffset":73912,
			"target":34962
		},
		{
			"buffer":0,
			"byteLength":4752,
			"byteOffset":78664,
			"target":34962
		},
		{
			"buffer":0,
			"byteLength":3168,
			"byteOffset":83416,
			"target":34962
		},
		{
			"buffer":0,
			"byteLength":2832,
			"byteOffset":86584,
			"target":34962
		},
		{
			"buffer":0,
			"byteLength":2832,
			"byteOffset":89416,
			"target":34962
		},
		{
			"buffer":0,
			"byteLength":1888,
			"byteOffset":92248,
			"target":34962
		},
		{
			"buffer":0,
			"byteLength":5040,
			"byteOffset":94136,
			"target":34962
		},
		{
			"buffer":0,
			"byteLength":5040,
			"byteOffset":99176,
			"target":34962
		},
		{
			"buffer":0,
			"byteLength":3360,
			"byteOffset":104216,
			"target":34962
		}
	],
	"buffers":[
		{
			"byteLength":107576,
			"uri":"two-legs_v0-1.bin"
		}
	]
}
